<svg xmlns="http://www.w3.org/2000/svg" width="256" height="256"><path fill-opacity=".016" d="M0 128.004v128.004l128.25-.254 128.25-.254.254-127.75L257.008 0H0v128.004m.485.496c0 70.4.119 99.053.265 63.672.146-35.38.146-92.98 0-128C.604 29.153.485 58.1.485 128.5" fill="#1976D2" fill-rule="evenodd"/><path fill-opacity=".119" d="M97.11 67.396c-1.314.728-2.893 2.265-3.509 3.415-1.08 2.019-2.066 2.112-28.61 2.715-15.12.343-27.849.971-28.286 1.394-.883.855 16.081 2.08 28.797 2.08 4.505 0 12.31.292 17.344.65l9.154.649V87l-20.75.007c-39.425.014-46.098 2.525-10.651 4.008 12.046.505 24.055.932 26.689.951l4.787.034-.287 9.206-.288 9.206-13.922.3C62.317 111.04 57.556 112 71.187 112 83.905 112 92 113.028 92 114.642c0 1.106-4.494 1.359-24.25 1.363-13.337.002-29.425.336-35.75.741l-11.5.736 7 .635c3.85.349 12.891.69 20.091.759 7.2.068 19.904.419 28.232.779 13.03.564 15.216.893 15.682 2.359 1.102 3.473-.445 4.695-6.782 5.357-7.067.739-11.495 3.538-5.937 3.754 1.768.069 3.664.238 4.214.375.55.137 2.575.306 4.5.375L91 132v15.096c0 12.289.31 15.62 1.665 17.914 2.806 4.751 7.687 6.077 13.982 3.801 4.519-1.634 5.472-4.822 6.072-20.311.277-7.15.913-13.437 1.414-13.972.896-.956 38.863-.846 39.838.116.259.256-.191.877-1 1.38-1.209.752-1.248 1.274-.221 2.932.688 1.109 1.25 4.508 1.25 7.552 0 4.933.272 5.659 2.5 6.674 1.882.858 3.137.849 5.079-.036 2.978-1.357 2.758-3.5-.407-3.966-1.849-.272-2.172-.969-2.172-4.682 0-3.485.403-4.491 2-4.998 2.363-.75 2.614-2.327.5-3.138-2.132-.819-1.859-2.362.418-2.362 5.085 0 5.061-.101 4.545 19.273-.265 9.943-.59 18.17-.723 18.282-.132.111-19.646.428-43.365.704-24.158.281-43.868.918-44.814 1.447-3.374 1.888.873 3.132 14.398 4.216 7.392.593 19.129 1.078 26.081 1.078 6.951 0 20.765.294 30.697.654l18.057.654.603 3.774c.813 5.082 4.496 7.918 10.286 7.918 5.024 0 8.659-2.959 9.636-7.843.309-1.549.884-19.776 1.277-40.506.705-37.165.744-37.697 2.81-38.146 1.151-.25 7.422-.578 13.934-.73 11.072-.257 11.965-.428 13.75-2.636 2.118-2.617 2.486-7.193.83-10.289-2.219-4.147-5.826-4.614-41.42-5.372-29.112-.62-34.514-.509-37.578.776-7.204 3.021-7.741 12.555-.9 15.994 2.721 1.368 6.037 1.749 15.228 1.75L167 105v21l-2.75.085c-23.556.728-50.25.665-50.25-.118 0-.58 6.027-.967 15.05-.967 11.477 0 15.744-.359 17.974-1.513 3.786-1.957 5.257-6.833 3.263-10.812-2.275-4.539-6.191-5.565-18.86-4.941-6.111.301-12.79.233-14.841-.152l-3.729-.699.202-7.692c.112-4.23.42-9.603.685-11.941l.483-4.25h20.821c11.452 0 21.932-.422 23.289-.938 3.2-1.217 5.135-6.691 3.699-10.466-1.931-5.08-5.224-5.6-35.254-5.561-20.721.027-27.857.354-29.672 1.361m145.543 63.356c-.293.475-.672 5.787-.843 11.805-.298 10.515-.227 10.955 1.819 11.247 1.733.247 2.252-.356 2.795-3.25.367-1.955.984-3.551 1.371-3.546.388.004 1.747 1.832 3.02 4.061 1.274 2.23 2.849 3.879 3.5 3.664 2.009-.661 1.928-4.603-.163-7.999-1.966-3.192-1.967-3.264-.072-5.595 2.305-2.834 2.396-3.742.447-4.49-.81-.311-2.811.56-4.446 1.936l-2.973 2.502-.304-5.284c-.228-3.97-.716-5.363-1.961-5.599-.911-.173-1.896.074-2.19.548M120.5 136.195c-2.601 1.475-3.437 2.807-2.8 4.464.682 1.779 2.755 1.702 4.3-.159 1.566-1.886 5-1.963 5-.111 0 .813-1.553 1.679-3.75 2.089-4.855.907-6.25 2.14-6.25 5.522 0 3.991 1.712 4.87 9.267 4.755l6.733-.102v-7.27c0-6.379-.272-7.46-2.223-8.826-2.589-1.814-7.417-1.984-10.277-.362m16.863 1.351c-2.307 2.308-2.413 2.747-1.124 4.688.783 1.178 2.934 2.651 4.781 3.273 3.836 1.291 4.947 3.185 2.435 4.149-1.147.44-2.312-.137-3.535-1.75-1.64-2.163-1.981-2.251-3.369-.874-1.364 1.354-1.373 1.778-.076 3.628 4.295 6.133 17.1 1.02 13.639-5.446-.548-1.024-2.823-2.409-5.055-3.078-2.232-.669-4.059-1.648-4.059-2.176 0-1.396 2.323-1.175 4.517.429 2.141 1.565 4.483 1.074 4.483-.939 0-1.978-4.038-4.45-7.268-4.45-1.691 0-3.843 1.021-5.369 2.546m55.182-.758c-.3.3-.545 4.084-.545 8.41 0 6.289.321 7.988 1.601 8.479 2.249.863 3.366-1.403 3.384-6.868.016-4.861 1.052-6.309 4.515-6.309 1.333 0 2-.667 2-2 0-1.727-.71-2.018-5.205-2.129-2.862-.071-5.45.117-5.75.417m13.829 1.763c-2.21 3.374-.406 5.693 2.431 3.125 2.318-2.097 6.195-2.208 6.195-.176 0 1.048-1.056 1.5-3.5 1.5-6.026 0-9.628 5.729-5.929 9.429 1.719 1.718 6.11 2.059 8.34.647.871-.551 2.125-.45 3.28.266 2.814 1.742 3.641-.467 3.074-8.201-.57-7.765-1.764-9.141-7.933-9.141-3.491 0-4.596.473-5.958 2.551m19.262.085c-3.325 3.325-3.572 8.905-.563 12.729 2.9 3.688 9.534 3.746 12.946.114 2.219-2.361 2.262-2.626.687-4.201-1.575-1.576-1.811-1.543-3.733.52-2.688 2.886-4.75 2.786-6.155-.298-.852-1.87-.852-3.13 0-5 1.376-3.019 2.573-3.124 5.892-.514 2.917 2.295 4.29 1.852 4.29-1.385 0-4.853-9.132-6.196-13.364-1.965M123.693 145.7c-1.043.27-1.662 1.173-1.464 2.134.57 2.766 5.695.91 5.756-2.084.016-.797-1.347-.813-4.292-.05m87.057 1.38c-2.654 1.546-2.094 3.093.991 2.736 1.654-.19 2.874-1.011 3.074-2.066.368-1.941-1.386-2.23-4.065-.67m-20.138 23.67c-.288.963-.187 3.325.223 5.25.714 3.347.948 3.508 5.376 3.698 5.337.229 7.091-1.201 6.611-5.388-.288-2.515-.71-2.81-4.02-2.81-2.034 0-4.262-.562-4.95-1.25-1.712-1.709-2.622-1.569-3.24.5m16.756 1.733c-.325.848-.036 2.212.643 3.03.857 1.033.891 1.487.111 1.487-1.667 0-1.358 1.972.415 2.653.846.324 2.365-.159 3.377-1.075 1.659-1.502 1.898-1.51 2.445-.085.607 1.582 3.961 1.697 6.322.215.649-.407 1.411-.368 1.693.088.281.455 4.475.8 9.319.766 7.677-.054 8.808-.286 8.818-1.803.005-.958.455-1.725 1-1.705.544.02.855.878.691 1.906-.265 1.661.349 1.851 5.5 1.705 5.192-.148 5.765-.374 5.484-2.165-.172-1.1-.311-2.812-.308-3.804.007-2.17-2.592-3.382-4.074-1.9-.748.748-1.631.713-2.993-.118-1.585-.966-2.173-.854-3.271.625-.94 1.267-1.462 1.43-1.757.547-.51-1.53-16.68-2.147-18.444-.703-.743.608-1.394.572-1.809-.098-1.254-2.03-2.53-1.016-2.53 2.01 0 1.692-.427 2.795-.956 2.468-.526-.325-.721-1.206-.432-1.958.668-1.741-1.15-2.86-5.345-3.29-2.288-.235-3.489.136-3.899 1.204m4.175 1.448c-.317.512-.118 1.213.441 1.559.559.345 1.016-.074 1.016-.931 0-1.757-.6-2.015-1.457-.628m-17.464 1.652c.048 1.165.285 1.402.604.605.289-.722.253-1.585-.079-1.917-.332-.332-.568.258-.525 1.312m5 0c.048 1.165.285 1.402.604.605.289-.722.253-1.585-.079-1.917-.332-.332-.568.258-.525 1.312M224 175.5c0 .825.675 1.5 1.5 1.5s1.5-.675 1.5-1.5-.675-1.5-1.5-1.5-1.5.675-1.5 1.5m7 0c0 .825.675 1.5 1.5 1.5s1.5-.675 1.5-1.5-.675-1.5-1.5-1.5-1.5.675-1.5 1.5m15-1.122c0 .207.787.995 1.75 1.75 1.586 1.243 1.621 1.208.378-.378-1.307-1.666-2.128-2.195-2.128-1.372" fill="#1976D2" fill-rule="evenodd"/><path fill-opacity=".303" d="M95 71c-3.586 3.885-3.891 4.004-10.596 4.134l-6.904.134 7.25.961 7.25.961v10.524l-13.962.161c-20.672.239-21.964 1.725-2.288 2.632l16.25.749V117l-15.75.15c-17.562.167-16.999.576 2.25 1.635l13 .715.257 19.5c.269 20.435.506 22.574 2.374 21.419.63-.389 4.628-.616 8.884-.503l7.74.205.587-4.311c.323-2.37.889-10.497 1.257-18.06l.671-13.75h32.552l2.589-3.077c2.917-3.467 2.73-6.969-.557-10.423-1.727-1.814-3.44-2.03-18.379-2.317L113 107.865V83l15.25-.118c8.387-.065 16.6-.462 18.25-.882 1.65-.42 2.213-.817 1.25-.882-2.025-.137-2.414-2.118-.417-2.118.734 0 1.391-.562 1.46-1.25.07-.687.41-2.424.757-3.86.505-2.095.217-2.718-1.46-3.156-2.542-.665-2.738-2.418-.34-3.045.963-.251-9.682-.509-23.654-.573L98.693 67 95 71m50.194 17.083c.257.769-.132 1.998-.864 2.73-.731.731-1.33 3.233-1.33 5.558 0 2.326-.515 4.744-1.145 5.374-1.654 1.654 1.632 2.217 14.645 2.508l11 .247.283 11.25c.155 6.188.155 11.268 0 11.29-.156.022-9.958.268-21.783.547-22.786.538-26.442.888-25.482 2.442.33.534.011 1.044-.709 1.133-2.964.366 14.457 1.586 24.382 1.707 10.742.132 13.066.843 10.286 3.15-.993.825-1.178 1.636-.546 2.398.526.634 1.094 3.837 1.263 7.118.304 5.926.327 5.967 3.556 6.278 3.538.341 4.487-1.256 1.25-2.103-1.663-.435-2-1.364-2-5.509 0-3.716.421-5.149 1.653-5.622 1.49-.571 1.466-.773-.25-2.039-2.81-2.075-.672-3.528 4.218-2.868l4.122.557-.436 18.635c-.24 10.25-.618 19.199-.84 19.886-.302.934-5.033 1.281-18.686 1.374-10.054.069-21.431.406-25.281.75-6.688.598-6.866.679-4 1.826 1.777.711 12.351 1.527 25.931 2l22.931.8.739 2.775c.868 3.257 3.948 5.979 8.716 7.703 4.119 1.49 7.335.179 9.107-3.711.761-1.67 1.355-15.691 1.77-41.77l.625-39.256 5.091-.612c2.799-.336 7.689-.616 10.865-.62 5.356-.008 5.849-.206 6.805-2.72.567-1.491.762-3.784.432-5.096-.329-1.311-.12-2.961.465-3.665.806-.971.263-1.661-2.243-2.85-4.745-2.252-65.257-3.748-64.54-1.595m97.656 52.334c-.083 5.271-.195 10.108-.25 10.75-.055.641.409 1.336 1.031 1.543.628.21 1.425-1.196 1.795-3.166.884-4.713 3.637-4.733 5.873-.044.918 1.925 2.126 3.5 2.685 3.5 1.574 0 1.217-1.754-1.219-5.987l-2.235-3.884 2.409-2.564c1.762-1.876 2.007-2.565.91-2.565-.825 0-2.565 1.134-3.867 2.519-3.325 3.54-4.482 2.633-4.482-3.51 0-3.359-.46-5.476-1.25-5.747-.936-.321-1.288 1.976-1.4 9.155m-122.1-3.337c-.963.561-1.75 1.742-1.75 2.625 0 1.43.208 1.416 1.912-.125 2.617-2.369 7.588-1.777 7.588.903 0 1.512-.879 2.126-3.698 2.584-4.644.755-6.802 2.511-6.802 5.536 0 2.731 1.985 3.391 9.307 3.093l4.808-.196-.393-6.839c-.256-4.452-.887-7.152-1.808-7.735-1.89-1.197-6.992-1.111-9.164.154m18 0c-.963.561-1.75 2.062-1.75 3.336 0 1.837 1.037 2.748 5 4.395 5.576 2.318 6.208 3.682 2.49 5.375-2.146.978-2.856.819-4.894-1.096-2.654-2.493-4.59-1.227-2.034 1.329 1.617 1.617 8.073 2.143 10.011.816 1.813-1.242 2.351-3.96 1.108-5.602-.649-.859-2.981-2.143-5.181-2.852-4.194-1.352-5.401-3.984-2.119-4.616 1.035-.199 2.947.208 4.249.905 2.977 1.593 4.537.257 1.927-1.652-2.251-1.646-6.295-1.801-8.807-.338m54.753.751c-.898.897-.531 15.169.39 15.169 1.354 0 2.107-2.687 2.107-7.523 0-4.524 1.094-5.977 4.5-5.977 1.1 0 2.112-.45 2.248-1 .249-1-8.296-1.619-9.245-.669m14.021.788c-2.055 2.055-1.313 2.874 1.325 1.462 2.819-1.509 6.834-1.349 7.466.297.744 1.938-1.252 3.622-4.292 3.622-3.277 0-7.023 2.59-7.023 4.857 0 3.834 4.804 5.389 9.268 3 1.603-.858 2.232-.858 2.518 0 .209.628.793 1.143 1.297 1.143 1.379 0 1.123-13.394-.283-14.8-1.749-1.749-8.379-1.478-10.276.419m18.809.957c-2.169 2.169-2.491 3.208-2.039 6.578.295 2.201 1.362 4.627 2.371 5.392 2.726 2.065 7.726 1.785 9.841-.552 2.274-2.513 1.157-3.904-1.329-1.655-2.253 2.04-5.53 2.146-7.119.231-.653-.787-1.046-3.141-.873-5.232.257-3.103.815-3.976 3.035-4.752 2.108-.737 3.137-.573 4.578.732 2.286 2.068 3.202 2.13 3.202.217 0-3.99-7.98-4.646-11.667-.959m-103.083 5.455c-2.617 1.052-3.003 4.466-.609 5.385 2.242.86 6.359-2.014 6.359-4.439 0-2.145-1.963-2.468-5.75-.946m86.279 1.324c-2.414 1.765-1.335 4.645 1.74 4.645 2.786 0 4.731-1.726 4.731-4.2 0-2.189-3.735-2.445-6.471-.445m-17.891 24.422c-.72 1.164.401 8.223 1.305 8.223.863 0 .78-7.611-.093-8.484-.357-.357-.903-.239-1.212.261m4.827 2.28c-.359.581-.377 2.156-.04 3.5.435 1.732 1.304 2.443 2.987 2.443 2.617 0 3.957-2.264 3.043-5.141-.642-2.022-4.885-2.591-5.99-.802M208 173.3c0 .715.559 1.859 1.242 2.542.988.988.938 1.433-.25 2.184-1.193.754-1.041.946.758.959 2.752.018 3.134-3.41.5-4.485-1.606-.656-1.586-.782.25-1.537 1.901-.782 1.889-.826-.25-.893-1.238-.038-2.25.515-2.25 1.23m6.179 1.847c.27 2.818.759 3.403 3.071 3.669 2.471.285 2.75.006 2.75-2.75 0-1.686-.45-3.066-1-3.066s-1 1.125-1 2.5-.45 2.5-1 2.5-1-1.098-1-2.441c0-1.343-.482-2.739-1.071-3.103-.701-.433-.96.497-.75 2.691m8.205-1.705c-.937 2.441.043 5.017 2.057 5.404 1.795.346 1.811.263.238-1.31-2.049-2.049-2.049-2.024-.108-3.965 1.429-1.428 1.426-1.571-.031-1.571-.882 0-1.852.649-2.156 1.442m6.656.01c-1.757 2.116-.338 5.554 2.277 5.518 1.964-.028 2.007-.133.433-1.05-.963-.561-1.75-1.65-1.75-2.42s.787-1.859 1.75-2.42c1.535-.894 1.55-1.023.122-1.05-.895-.016-2.169.623-2.832 1.422m6.344-.01c-1.053 2.745.091 5.054 2.626 5.298l2.49.24-2.5-1.178-2.5-1.178 2.829-.386c2.03-.277 2.665-.811 2.25-1.894-.319-.829-.579-1.696-.579-1.926 0-1.141-4.137-.224-4.616 1.024m13.022-.29c-.392.634.141 1.775 1.186 2.539 1.636 1.196 1.692 1.518.403 2.333-1.198.758-1.048.948.755.961 2.589.017 3.109-2.718.693-3.645-.857-.329-1.321-1.215-1.032-1.969.637-1.659-1.004-1.839-2.005-.219m-50.24 1.987c.184 1.298.784 2.248 1.334 2.111 1.476-.369 1.216-3.511-.334-4.028-.915-.305-1.229.298-1 1.917M237 174c0 .55.45 1 1 1s1-.45 1-1-.45-1-1-1-1 .45-1 1m5 .031c0 .568.675 1.291 1.5 1.607 2.021.776 1.896 2.112-.25 2.673-1.38.36-1.297.481.393.573 2.909.157 3.614-2.219 1.258-4.237-2.23-1.909-2.901-2.051-2.901-.616" fill="#1976D2" fill-rule="evenodd"/><path fill-opacity=".585" d="M108.5 81.736c-2.872.286-5.388 1.565-8.92 4.534-4.123 3.466-4.826 3.779-4.343 1.934.775-2.966-.502-3.543-2.549-1.153-1.24 1.449-3.019 1.969-6.928 2.028-6.226.093-5.309.692 1.74 1.135l5 .314.297 5.632c.279 5.301.529 5.794 4.25 8.372 2.174 1.507 3.953 2.891 3.953 3.076 0 .185-1.8.183-4-.003l-4-.34-.105 5.118c-.191 9.244.225 35.002.573 35.566.52.841 11.319 1.257 14.5.558 2.689-.59 2.84-.942 3.588-8.312.43-4.232.847-9.72.927-12.195l.146-4.5 16.002-.117c9.714-.07 16.828-.558 18.104-1.241 3.155-1.689 3.925-6.78 1.515-10.012-1.953-2.62-2.028-2.632-18.856-3.13l-16.894-.5.088-13.75c.049-7.562.049-13.674 0-13.582-.048.093-1.888.348-4.088.568m49.531 7.152-2.47.688 3.187 1.319c1.752.726 3.763 2.022 4.469 2.879 1.131 1.373.863 1.491-2.253.99l-3.535-.569V103h10.278l.646 7.651c1.415 16.739.856 18.349-6.371 18.349-4.258 0-3.398 2.317 1.134 3.054 5.582.907 6.18 1.649 5.504 6.824-.332 2.542-.641 11.297-.688 19.456-.075 13.249.11 14.976 1.736 16.165 1.361.995 2.006 1.037 2.56.166.511-.803.748-.699.764.335.023 1.578 5.786 6 7.82 6 .653 0 1.188.354 1.188.787 0 1.913 3.852.936 4.363-1.106.299-1.2.655-18.991.791-39.537.238-36.144.31-37.38 2.217-38.085 1.33-.492 1.59-.965.8-1.453-.677-.419-1.171-3.171-1.171-6.523v-5.798l-6.147-.643c-7.69-.803-21.55-.667-24.822.246m-6.63 87.656c1.945 1.945 15.694 1.698 16.352-.294.311-.939-1.864-1.25-8.741-1.25-8.255 0-9.003.152-7.611 1.544" fill="#1976D2" fill-rule="evenodd"/></svg>